<?xml version="1.0" encoding="UTF-8"?>
<svg width="700pt" height="700pt" version="1.1" viewBox="0 0 700 700" xmlns="http://www.w3.org/2000/svg">
 <path d="m479.87 406.83c3.7461-3.8633 10.133-1.5469 10.133 3.832v44.34c0 32.215-62.68 58.332-140 58.332s-140-26.117-140-58.332v-44.34c0-5.3789 6.3867-7.6953 10.133-3.832 20.738 21.402 71.07 36.504 129.87 36.504s109.13-15.102 129.87-36.504zm-129.87-68.496c-58.797 0-109.13-15.102-129.87-36.504-3.7461-3.8633-10.133-1.5469-10.133 3.832v44.34c0 32.215 62.68 58.332 140 58.332s140-26.117 140-58.332v-44.34c0-5.3789-6.3867-7.6953-10.133-3.832-20.738 21.402-71.07 36.504-129.87 36.504zm0-105c-58.797 0-109.13-15.102-129.87-36.504-3.7461-3.8633-10.133-1.5469-10.133 3.832v44.34c0 32.215 62.68 58.332 140 58.332s140-26.117 140-58.332v-44.34c0-5.3789-6.3867-7.6953-10.133-3.832-20.738 21.402-71.07 36.504-129.87 36.504zm0-186.66c-77.32 0-140 26.113-140 58.332v35c0 32.215 62.68 58.332 140 58.332s140-26.117 140-58.332v-35c0-32.219-62.68-58.332-140-58.332z"/>
</svg>
